<svg version="1.1" viewBox="0 0 223.00083 136.93033" xml:space="preserve" xmlns="http://www.w3.org/2000/svg">
<rect width="223" height="136.93" fill="#e7efff"/><g transform="matrix(.18605 0 0 .18605 65.857 22.822)"><circle cx="245.33" cy="245.33" r="160" fill="#ffc107"/><g fill="#ffd54f">
	<path d="m245.33 64c5.891 0 10.667-4.776 10.667-10.667v-42.666c0-5.891-4.776-10.667-10.667-10.667s-10.667 4.776-10.667 10.667v42.667c1e-3 5.89 4.776 10.666 10.667 10.666z"/>
	<path d="m245.33 426.67c-5.891 0-10.667 4.776-10.667 10.667v42.666c0 5.891 4.776 10.667 10.667 10.667s10.667-4.776 10.667-10.667v-42.667c0-5.891-4.776-10.666-10.667-10.666z"/>
	<path d="m480 234.67h-42.667c-5.891 0-10.667 4.776-10.667 10.667s4.776 10.667 10.667 10.667h42.667c5.891 0 10.667-4.776 10.667-10.667 0-5.892-4.776-10.667-10.667-10.667z"/>
	<path d="m64 245.33c0-5.891-4.776-10.667-10.667-10.667h-42.666c-5.891 1e-3 -10.667 4.776-10.667 10.667s4.776 10.667 10.667 10.667h42.667c5.89 0 10.666-4.776 10.666-10.667z"/>
	<path d="m140.1 84.395c1.909 3.307 5.44 5.341 9.259 5.333 1.873 7e-3 3.715-0.486 5.333-1.429 5.102-2.946 6.849-9.469 3.904-14.571l-21.333-36.949c-2.979-5.082-9.514-6.787-14.596-3.808-5.035 2.951-6.763 9.401-3.878 14.474z"/>
	<path d="m350.57 406.27c-2.98-5.082-9.515-6.786-14.597-3.806-5.033 2.952-6.761 9.4-3.878 14.473l21.333 36.949c1.909 3.307 5.44 5.341 9.259 5.333 1.873 7e-3 3.715-0.486 5.333-1.429 5.102-2.946 6.849-9.469 3.904-14.571z"/>
	<path d="m411.6 160c1.873 7e-3 3.715-0.486 5.333-1.429l36.949-21.333c5.22-2.731 7.238-9.176 4.507-14.396s-9.176-7.238-14.396-4.507c-0.266 0.139-0.525 0.289-0.778 0.45l-36.949 21.333c-5.102 2.946-6.849 9.47-3.904 14.571 1.905 3.3 5.426 5.333 9.237 5.333v-0.022z"/>
	<path d="m73.728 332.1-36.949 21.333c-5.102 2.946-6.849 9.469-3.904 14.571 1.905 3.3 5.426 5.333 9.237 5.333 1.873 7e-3 3.715-0.486 5.333-1.429l36.949-21.333c5.22-2.731 7.238-9.176 4.507-14.396s-9.176-7.238-14.396-4.507c-0.266 0.139-0.525 0.289-0.778 0.45z"/>
	<path d="m36.779 137.24 36.949 21.333c1.613 0.939 3.446 1.433 5.312 1.429 5.891 0 10.666-4.776 10.666-10.667 0-3.81-2.033-7.331-5.333-9.237l-36.949-21.333c-4.972-3.16-11.564-1.692-14.724 3.279s-1.692 11.564 3.279 14.724c0.253 0.161 0.512 0.311 0.778 0.45z"/>
	<path d="m453.89 353.43-36.949-21.333c-4.972-3.16-11.564-1.692-14.724 3.279s-1.692 11.564 3.279 14.724c0.253 0.161 0.513 0.311 0.778 0.45l36.949 21.333c1.619 0.943 3.46 1.436 5.333 1.429 5.891 0 10.666-4.776 10.666-10.667 0-3.811-2.033-7.332-5.333-9.237v0.022z"/>
	<path d="m336 88.299c1.619 0.943 3.46 1.436 5.333 1.429 3.818 8e-3 7.349-2.027 9.259-5.333l21.333-36.949c2.911-5.121 1.119-11.633-4.002-14.544-5.073-2.883-11.521-1.156-14.473 3.878l-21.333 36.949c-2.949 5.095-1.211 11.617 3.883 14.57z"/>
	<path d="m154.67 402.37c-5.102-2.945-11.625-1.198-14.571 3.904l-21.333 36.949c-2.945 5.102-1.198 11.625 3.904 14.571 1.619 0.943 3.46 1.436 5.333 1.429 3.818 8e-3 7.35-2.027 9.259-5.333l21.333-36.949c2.94-5.105 1.186-11.627-3.919-14.567-2e-3 -2e-3 -4e-3 -3e-3 -6e-3 -4e-3z"/>
</g></g></svg>
