<?xml version="1.0" encoding="UTF-8" standalone="no"?>
<!-- Created with Inkscape (http://www.inkscape.org/) -->

<svg
   xmlns:dc="http://purl.org/dc/elements/1.1/"
   xmlns:cc="http://creativecommons.org/ns#"
   xmlns:rdf="http://www.w3.org/1999/02/22-rdf-syntax-ns#"
   xmlns:svg="http://www.w3.org/2000/svg"
   xmlns="http://www.w3.org/2000/svg"
   xmlns:sodipodi="http://sodipodi.sourceforge.net/DTD/sodipodi-0.dtd"
   xmlns:inkscape="http://www.inkscape.org/namespaces/inkscape"
   width="6.8450851mm"
   height="6.8450851mm"
   viewBox="0 0 6.8450851 6.8450851"
   version="1.1"
   id="svg5121"
   inkscape:version="0.92.0 r15299"
   sodipodi:docname="logo.svg">
  <defs
     id="defs5115" />
  <sodipodi:namedview
     id="base"
     pagecolor="#ffffff"
     bordercolor="#666666"
     borderopacity="1.0"
     inkscape:pageopacity="0.0"
     inkscape:pageshadow="2"
     inkscape:zoom="2.8"
     inkscape:cx="127.21379"
     inkscape:cy="-80.190376"
     inkscape:document-units="mm"
     inkscape:current-layer="layer1"
     showgrid="false"
     inkscape:window-width="1920"
     inkscape:window-height="1027"
     inkscape:window-x="-8"
     inkscape:window-y="22"
     inkscape:window-maximized="1" />
  <metadata
     id="metadata5118">
    <rdf:RDF>
      <cc:Work
         rdf:about="">
        <dc:format>image/svg+xml</dc:format>
        <dc:type
           rdf:resource="http://purl.org/dc/dcmitype/StillImage" />
        <dc:title></dc:title>
      </cc:Work>
    </rdf:RDF>
  </metadata>
  <g
     inkscape:label="Calque 1"
     inkscape:groupmode="layer"
     id="layer1"
     transform="translate(-10.940553,-80.398884)">
    <circle
       style="opacity:1;vector-effect:none;fill:#ffffff;fill-opacity:1;stroke:none;stroke-width:0.95480233;stroke-linecap:round;stroke-linejoin:round;stroke-miterlimit:4;stroke-dasharray:none;stroke-dashoffset:0;stroke-opacity:1;paint-order:stroke markers fill"
       id="path5099"
       cx="14.363095"
       cy="83.821426"
       r="3.4225426"
       inkscape:export-filename="C:\Users\j.leicher\Documents\Sources\python\atlas\documentation\logo_app.png"
       inkscape:export-xdpi="1484.275"
       inkscape:export-ydpi="1484.275" />
    <g
       transform="matrix(0.26458333,0,0,0.26458333,11.201348,80.645839)"
       id="g4497"
       style="fill:#403cb3;fill-opacity:1;fill-rule:evenodd;stroke:none;stroke-width:1"
       inkscape:export-filename="C:\Users\j.leicher\Documents\Sources\python\atlas\documentation\logo_app.png"
       inkscape:export-xdpi="1484.275"
       inkscape:export-ydpi="1484.275">
      <g
         transform="translate(-428,-532)"
         id="g4495"
         style="fill:#403cb3;fill-opacity:1">
        <g
           transform="translate(428,532)"
           id="g4493"
           style="fill:#403cb3;fill-opacity:1">
          <g
             id="g4491"
             style="fill:#403cb3;fill-opacity:1">
            <path
               inkscape:connector-curvature="0"
               d="m 11.9999,0.9999 c -6.075,0 -11,4.925 -11,11 0,6.075 4.925,11 11,11 6.075,0 11,-4.925 11,-11 0,-6.075 -4.925,-11 -11,-11 z m 7.413,14.283 c -0.58,0.169 -1.175,-0.125 -1.712,-0.595 -1.085,-0.949 -2.73,-4.078 -2.73,-4.078 -0.26,-0.475 -0.695,-0.477 -0.974,-0.002 0,0 -0.812,1.4 -1.239,2.043 -0.637,0.958 -1.989,2.745 -1.989,2.745 -0.086,0.113 -0.241,0.122 -0.337,0.028 0,0 -0.724,-0.698 -1.064,-1.09 -0.262,-0.301 -0.761,-0.985 -0.761,-0.985 -0.162,-0.219 -0.433,-0.219 -0.603,-0.003 0,0 -0.623,0.801 -1.36,1.692 -0.738,0.891 -1.333,1.291 -1.837,1.232 -0.503,-0.06 -0.859,-0.368 -1.122,-0.819 -0.441,-1.063 -0.685,-2.228 -0.685,-3.451 0,-4.97 4.03,-9 9,-9 4.971,0 9,4.03 9,9 0,0.545 -0.048,1.079 -0.141,1.597 -0.222,0.793 -0.654,1.455 -1.446,1.686 z m -1.181,2.641 c -0.445,0.57 -1.268,0.887 -1.735,0.522 -0.466,-0.364 0.17,-0.798 0.591,-1.3 0.537,-0.638 0.893,-0.757 1.186,-0.595 0.408,0.226 0.28,0.961 -0.042,1.373 m -2.715,1.617 c -0.392,0.296 -0.989,0.36 -1.232,0.038 -0.242,-0.322 0.252,-0.495 0.617,-0.75 0.465,-0.325 0.72,-0.341 0.885,-0.182 0.228,0.22 0.014,0.68 -0.27,0.894 z M 6.4952,6.9366 c -0.462,0.592 -0.647,1.649 -0.06,1.973 0.422,0.234 0.933,0.062 1.705,-0.856 0.606,-0.72 1.52,-1.344 0.849,-1.868 -0.671,-0.525 -1.854,-0.068 -2.494,0.751 z"
               id="path4489"
               style="fill:#403cb3;fill-opacity:1" />
          </g>
        </g>
      </g>
    </g>
  </g>
</svg>
